<svg xmlns="http://www.w3.org/2000/svg" width="17" height="17" viewBox="0 0 17 17" fill="none">
  <g clip-path="url(#clip0_8112_13284)">
    <path d="M16.1979 3.72852H1.13544C0.876562 3.72852 0.666687 3.93839 0.666687 4.19727V12.8978C0.666687 13.1566 0.876562 13.3665 1.13544 13.3665H16.1979C16.4568 13.3665 16.6667 13.1566 16.6667 12.8978V4.19727C16.6667 3.93839 16.4568 3.72852 16.1979 3.72852ZM15.7292 12.429H1.60419V4.66602H15.7292V12.429Z" fill="#006937"></path>
    <path d="M3.34528 7.84123H7.92722C8.18609 7.84123 8.39597 7.63136 8.39597 7.37248C8.39597 7.11361 8.18609 6.90373 7.92722 6.90373H3.34528C3.08641 6.90373 2.87653 7.11361 2.87653 7.37248C2.87653 7.63136 3.08641 7.84123 3.34528 7.84123Z" fill="#006937"></path>
    <path d="M3.34528 10.1499H9.17106C9.42994 10.1499 9.63981 9.93998 9.63981 9.68111C9.63981 9.42223 9.42994 9.21236 9.17106 9.21236H3.34528C3.08641 9.21236 2.87653 9.42223 2.87653 9.68111C2.87653 9.93998 3.08641 10.1499 3.34528 10.1499Z" fill="#006937"></path>
    <path d="M11.5293 10.5934C11.8439 10.7992 12.0804 10.8901 12.357 10.9271V11.0558C12.357 11.3146 12.5668 11.5245 12.8257 11.5245C13.0846 11.5245 13.2945 11.3146 13.2945 11.0558V10.8782C13.8929 10.691 14.2756 10.1641 14.363 9.6442C14.4813 8.94042 14.0999 8.30467 13.4139 8.06217C13.0519 7.93423 12.6522 7.78014 12.4319 7.60736C12.3793 7.56614 12.3572 7.46005 12.3781 7.34939C12.3891 7.29089 12.4403 7.09548 12.6364 7.03639C12.9869 6.93086 13.2253 7.06939 13.3116 7.13386C13.5189 7.28889 13.8127 7.24642 13.9677 7.03911C14.1227 6.83177 14.0802 6.53802 13.8729 6.38302C13.789 6.3203 13.5856 6.18677 13.2944 6.11292V5.9978C13.2944 5.73892 13.0846 5.52905 12.8257 5.52905C12.5668 5.52905 12.3569 5.73892 12.3569 5.9978V6.14183C11.8947 6.28486 11.5502 6.68002 11.4567 7.17577C11.3698 7.63695 11.5218 8.08498 11.8533 8.34502C12.1794 8.6008 12.6459 8.78505 13.1014 8.94608C13.4532 9.07042 13.4636 9.33945 13.4385 9.48877C13.3964 9.7392 13.1857 10.0098 12.8226 10.0123C12.4404 10.0148 12.331 9.99758 12.0425 9.80883C11.8259 9.66714 11.5353 9.72786 11.3936 9.94448C11.2519 10.1611 11.3127 10.4517 11.5293 10.5934Z" fill="#006937"></path>
  </g>
  <defs>
    <clipPath id="clip0_8112_13284">
      <rect width="16" height="16" fill="white" transform="translate(0.666687 0.747559)"></rect>
    </clipPath>
  </defs>
</svg>