<svg xmlns="http://www.w3.org/2000/svg" width="24" height="24" viewBox="0 0 24 24" fill="none">
                <g clip-path="url(#clip0_12262_2474)">
                  <path d="M22.5083 9.20183L12.5353 2.05075C12.217 1.82832 11.7872 1.82583 11.4652 2.05075L1.49228 9.20183C0.485812 9.92348 -0.607448 8.40202 0.400519 7.67925L10.3774 0.525455C10.3796 0.523862 10.3818 0.522316 10.384 0.520724C11.347 -0.157218 12.6424 -0.16518 13.6167 0.520724C13.6189 0.52227 13.6211 0.523862 13.6233 0.525455L23.6001 7.67925C24.6101 8.40347 23.5061 9.91729 22.5083 9.20183Z" fill="#EAEAEC"></path>
                  <path d="M19.3073 23.9909H13.874C13.3566 23.9909 12.9372 23.5715 12.9372 23.0542V19.3071C12.9372 18.7905 12.517 18.3703 12.0004 18.3703C11.4839 18.3703 11.0637 18.7905 11.0637 19.3071V23.0542C11.0637 23.5715 10.6443 23.9909 10.1269 23.9909H4.69362C3.14401 23.9909 1.8833 22.7302 1.8833 21.1806V12.7781C1.8833 11.8668 2.32724 11.0095 3.07108 10.4835L10.375 5.21095C10.378 5.20875 10.3811 5.20659 10.3842 5.20444C11.3471 4.52668 12.6424 4.51868 13.6167 5.20444C13.6197 5.20659 13.6228 5.20875 13.6258 5.21095L20.9298 10.4835C21.6737 11.0095 22.1176 11.8669 22.1176 12.7781V21.1807C22.1176 22.7302 20.8569 23.9909 19.3073 23.9909ZM14.8108 22.1174H19.3073C19.8238 22.1174 20.244 21.6971 20.244 21.1806V12.7781C20.244 12.4736 20.0954 12.1873 19.8464 12.0121C19.8434 12.0099 19.8403 12.0077 19.8373 12.0055L12.5346 6.73395C12.2161 6.51203 11.7873 6.5103 11.4662 6.73395L4.16359 12.0055C4.16059 12.0077 4.15755 12.0099 4.15446 12.0121C3.90551 12.1873 3.75684 12.4736 3.75684 12.7781V21.1806C3.75684 21.6971 4.17708 22.1174 4.69362 22.1174H9.19012V19.3071C9.19012 17.7575 10.4508 16.4968 12.0004 16.4968C13.55 16.4968 14.8108 17.7575 14.8108 19.3071V22.1174Z" fill="#EAEAEC"></path>
                </g>
                <defs>
                  <clipPath id="clip0_12262_2474">
                    <rect width="24" height="24" fill="white"></rect>
                  </clipPath>
                </defs>
              </svg>