<svg xmlns="http://www.w3.org/2000/svg" width="24" height="24" viewBox="0 0 24 24" fill="none">
            <path d="M17.625 5.625C18.0131 5.625 18.3281 5.31 18.3281 4.92188V0.703125C18.3281 0.315 18.0131 0 17.625 0H13.4062C10.6921 0 8.48433 2.20781 8.48433 4.92188V8.4375H6.37495C5.98683 8.4375 5.67183 8.7525 5.67183 9.14062V13.3594C5.67183 13.7475 5.98683 14.0625 6.37495 14.0625H8.48433V23.2969C8.48433 23.685 8.79933 24 9.18745 24H13.4062C13.7943 24 14.1093 23.685 14.1093 23.2969V14.0625H16.9218C17.2654 14.0625 17.5589 13.8141 17.6156 13.4752L18.3187 9.25641C18.3525 9.0525 18.2953 8.84391 18.1617 8.68594C18.0281 8.52844 17.8317 8.4375 17.625 8.4375H14.1093V5.625H17.625ZM13.4062 9.84375H16.7948L16.326 12.6562H13.4062C13.0181 12.6562 12.7031 12.9713 12.7031 13.3594V22.5938H9.89058V13.3594C9.89058 12.9713 9.57558 12.6562 9.18745 12.6562H7.07808V9.84375H9.18745C9.57558 9.84375 9.89058 9.52875 9.89058 9.14062V4.92188C9.89058 2.98359 11.4679 1.40625 13.4062 1.40625H16.9218V4.21875H13.4062C13.0181 4.21875 12.7031 4.53375 12.7031 4.92188V9.14062C12.7031 9.52875 13.0181 9.84375 13.4062 9.84375Z" fill="#FAF7F2"></path>
          </svg>