<svg xmlns="http://www.w3.org/2000/svg" width="16" height="17" viewBox="0 0 16 17" fill="none">
  <g clip-path="url(#clip0_8687_3555)">
    <path d="M4.76026 11.2476H4.76004C4.58744 11.2476 4.44763 11.3875 4.44763 11.5601C4.44763 11.7326 4.58766 11.8726 4.76026 11.8726C4.93285 11.8726 5.07276 11.7326 5.07276 11.5601C5.07276 11.3875 4.93285 11.2476 4.76026 11.2476Z" fill="#006937"></path>
    <path d="M12.6355 11.2476H12.6353C12.4627 11.2476 12.3229 11.3875 12.3229 11.5601C12.3229 11.7326 12.4629 11.8726 12.6355 11.8726C12.8081 11.8726 12.948 11.7326 12.948 11.5601C12.948 11.3875 12.8081 11.2476 12.6355 11.2476Z" fill="#006937"></path>
    <path d="M15.1353 7.49755H15.0119L14.0163 5.18643C13.9669 5.07181 13.8541 4.99756 13.7293 4.99756H11.3855V4.37256C11.3855 4.2 11.2455 4.06006 11.073 4.06006H2.26034C2.09781 4.06006 1.96241 4.18462 1.94894 4.34662L1.84584 5.58352H0.854002C0.681409 5.58352 0.541503 5.72346 0.541503 5.89602C0.541503 6.06859 0.681409 6.20852 0.854002 6.20852H1.79375L1.71888 7.10696H1.32275C1.15016 7.10696 1.01025 7.2469 1.01025 7.41946C1.01025 7.59202 1.15016 7.73196 1.32275 7.73196H1.66681L1.59194 8.63036H0.385253C0.21266 8.63036 0.0727539 8.7703 0.0727539 8.94286C0.0727539 9.11542 0.21266 9.25536 0.385253 9.25536H1.53984L1.32391 11.8466C1.31666 11.9337 1.34619 12.0198 1.40535 12.0842C1.46453 12.1485 1.54791 12.1851 1.63531 12.1851H2.99225C3.25022 12.9126 3.94531 13.4351 4.76015 13.4351C5.57499 13.4351 6.27009 12.9126 6.52805 12.1851H10.8675C11.1255 12.9126 11.8206 13.4351 12.6354 13.4351C13.4503 13.4351 14.1454 12.9126 14.4034 12.1851H15.7603C15.9329 12.1851 16.0728 12.0451 16.0728 11.8726V8.43508C16.0728 7.90058 15.6697 7.49755 15.1353 7.49755ZM12.7919 5.62256H13.5237L14.3314 7.49755H12.7919V5.62256ZM2.54428 8.63036H2.21909L2.29397 7.73196H4.73178C4.90437 7.73196 5.04428 7.59202 5.04428 7.41946C5.04428 7.2469 4.90437 7.10696 4.73178 7.10696H2.34606L2.42094 6.20852H3.32553C3.49812 6.20852 3.63803 6.06859 3.63803 5.89602C3.63803 5.72346 3.49812 5.58352 3.32553 5.58352H2.473L2.54787 4.68506H10.7605V10.1538H5.99906C5.66846 9.86217 5.23459 9.68505 4.76015 9.68505C4.28571 9.68505 3.85184 9.86217 3.52125 10.1538H2.09216L2.16703 9.25536H2.54428C2.71687 9.25536 2.85678 9.11542 2.85678 8.94286C2.85678 8.7703 2.71687 8.63036 2.54428 8.63036ZM1.97497 11.56L2.04006 10.7788H3.05575C2.94625 11.0168 2.88515 11.2814 2.88515 11.56H1.97497ZM4.76015 12.81C4.0709 12.81 3.51015 12.2493 3.51015 11.56C3.51015 10.8708 4.0709 10.31 4.76015 10.31C5.4494 10.31 6.01015 10.8708 6.01015 11.56C6.01015 12.2493 5.4494 12.81 4.76015 12.81ZM6.63515 11.56C6.63515 11.2814 6.57405 11.0168 6.46455 10.7788H10.931C10.8215 11.0168 10.7605 11.2814 10.7605 11.56H6.63515ZM12.6354 12.81C11.9462 12.81 11.3854 12.2493 11.3854 11.56C11.3854 10.8708 11.9462 10.31 12.6354 10.31C13.3247 10.31 13.8854 10.8708 13.8854 11.56C13.8854 12.2493 13.3247 12.81 12.6354 12.81ZM15.4478 11.56H14.5104C14.5104 11.2814 14.4493 11.0168 14.3398 10.7788H15.4478V11.56H15.4478ZM15.4478 10.1538H13.8743C13.5437 9.86217 13.1099 9.68505 12.6354 9.68505C12.161 9.68505 11.7271 9.86217 11.3965 10.1538H11.3855V5.62256H12.1669V7.81005C12.1669 7.98261 12.3068 8.12255 12.4794 8.12255H15.1353C15.328 8.12255 15.4478 8.2423 15.4478 8.43505V10.1538Z" fill="#006937"></path>
    <path d="M6.20193 5.896C6.20193 5.72343 6.06203 5.5835 5.88943 5.5835H4.73181C4.55922 5.5835 4.41931 5.72343 4.41931 5.896C4.41931 6.06856 4.55922 6.20849 4.73181 6.20849H5.88943C6.06203 6.20849 6.20193 6.06856 6.20193 5.896Z" fill="#006937"></path>
    <path d="M5.82556 7.41943C5.82556 7.592 5.96547 7.73193 6.13806 7.73193H6.71687C6.88947 7.73193 7.02937 7.592 7.02937 7.41943C7.02937 7.24687 6.88947 7.10693 6.71687 7.10693H6.13806C5.96547 7.10693 5.82556 7.24684 5.82556 7.41943Z" fill="#006937"></path>
  </g>
  <defs>
    <clipPath id="clip0_8687_3555">
      <rect width="16" height="16" fill="white" transform="translate(0.0727539 0.747559)"></rect>
    </clipPath>
  </defs>
</svg>