<svg xmlns="http://www.w3.org/2000/svg" width="24" height="24" viewBox="0 0 24 24" fill="none">
                <g clip-path="url(#clip0_12262_2526)">
                  <path d="M15.5627 0C10.9104 0 7.12545 3.78496 7.12545 8.43727C7.12545 10.4264 7.81782 12.2566 8.97359 13.7006L7.51469 15.1595C6.4905 14.6693 5.195 14.8276 4.31303 15.7096L0.824356 19.1983C-0.274739 20.2974 -0.274832 22.0763 0.824356 23.1756C1.92345 24.2747 3.70245 24.2749 4.80173 23.1756L8.29045 19.687C9.17285 18.8045 9.33048 17.5089 8.84047 16.4853L10.2994 15.0264C11.7434 16.1822 13.5736 16.8745 15.5627 16.8745C20.215 16.8745 24 13.0896 24 8.43727C24 3.78496 20.215 0 15.5627 0ZM6.96463 18.3612L3.47596 21.8498C3.11048 22.2153 2.5157 22.2153 2.15023 21.8498C1.78466 21.4843 1.78466 20.8896 2.15023 20.524L5.6389 17.0354C6.00512 16.669 6.59817 16.669 6.96467 17.0354C7.33094 17.4016 7.33113 17.9947 6.96463 18.3612ZM15.5627 14.9996C11.9443 14.9996 9.0004 12.0557 9.0004 8.43727C9.0004 4.81881 11.9443 1.87495 15.5627 1.87495C19.1812 1.87495 22.125 4.81881 22.125 8.43727C22.125 12.0557 19.1812 14.9996 15.5627 14.9996Z" fill="#EAEAEC"></path>
                </g>
                <defs>
                  <clipPath id="clip0_12262_2526">
                    <rect width="24" height="24" fill="white"></rect>
                  </clipPath>
                </defs>
              </svg>