<svg xmlns="http://www.w3.org/2000/svg" width="16" height="17" viewBox="0 0 16 17" fill="none">
  <g clip-path="url(#clip0_8112_13308)">
    <path d="M16.0001 11.5757C16.0001 9.24353 14.4287 7.20593 12.2128 6.59192C12.0735 3.3457 9.3894 0.747559 6.1095 0.747559C2.74072 0.747559 0.00012207 3.48816 0.00012207 6.85693C0.00012207 7.95483 0.292358 9.0238 0.84729 9.96228L0.022583 12.9437L3.00415 12.1191C3.86682 12.6293 4.83997 12.9166 5.84436 12.96C6.45825 15.176 8.49597 16.7476 10.8282 16.7476C11.7592 16.7476 12.6644 16.4996 13.4598 16.0286L15.9775 16.725L15.2811 14.2073C15.7522 13.4119 16.0001 12.5066 16.0001 11.5757ZM3.1521 11.1055L1.36719 11.5992L1.86096 9.81433L1.74841 9.63831C1.21802 8.80847 0.937622 7.84668 0.937622 6.85693C0.937622 4.00513 3.25769 1.68506 6.1095 1.68506C8.9613 1.68506 11.2814 4.00513 11.2814 6.85693C11.2814 9.70874 8.9613 12.0288 6.1095 12.0288C5.11975 12.0288 4.15808 11.7484 3.32812 11.218L3.1521 11.1055ZM14.6331 15.3805L13.3086 15.014L13.1317 15.1292C12.446 15.5746 11.6494 15.8101 10.8282 15.8101C8.99524 15.8101 7.38452 14.6249 6.81384 12.9254C9.62073 12.6018 11.8544 10.3682 12.1781 7.56116C13.8774 8.13196 15.0626 9.74268 15.0626 11.5757C15.0626 12.3969 14.8271 13.1935 14.3817 13.8792L14.2666 14.056L14.6331 15.3805Z" fill="#006937"></path>
    <path d="M5.64075 9.21631H6.57825V10.1538H5.64075V9.21631Z" fill="#006937"></path>
    <path d="M7.047 5.43506C7.047 5.70129 6.9386 5.94702 6.74182 6.12708L5.64075 7.13489V8.27881H6.57825V7.54773L7.37476 6.81873C7.76221 6.46411 7.9845 5.95984 7.9845 5.43506C7.9845 4.40112 7.14343 3.56006 6.1095 3.56006C5.07556 3.56006 4.2345 4.40112 4.2345 5.43506H5.172C5.172 4.91809 5.59253 4.49756 6.1095 4.49756C6.62646 4.49756 7.047 4.91809 7.047 5.43506Z" fill="#006937"></path>
  </g>
  <defs>
    <clipPath id="clip0_8112_13308">
      <rect width="16" height="16" fill="white" transform="translate(0.00012207 0.747559)"></rect>
    </clipPath>
  </defs>
</svg>