<svg xmlns="http://www.w3.org/2000/svg" width="17" height="17" viewBox="0 0 17 17" fill="none">
                    <g clip-path="url(#clip0_8112_13377)">
                      <path d="M7.94346 16.5388C8.0304 16.6692 8.17678 16.7476 8.3335 16.7476C8.49021 16.7476 8.63659 16.6692 8.72353 16.5388C9.83287 14.8748 11.4668 12.8198 12.6055 10.7298C13.5159 9.05865 13.9585 7.63337 13.9585 6.37256C13.9585 3.27093 11.4351 0.747559 8.3335 0.747559C5.23187 0.747559 2.7085 3.27093 2.7085 6.37256C2.7085 7.63337 3.15109 9.05865 4.06153 10.7298C5.19931 12.8182 6.8364 14.8783 7.94346 16.5388ZM8.3335 1.68506C10.9182 1.68506 13.021 3.78787 13.021 6.37256C13.021 7.47268 12.6158 8.75125 11.7822 10.2813C10.8007 12.0828 9.40018 13.9103 8.3335 15.4466C7.26696 13.9105 5.86631 12.0829 4.88478 10.2813C4.05122 8.75125 3.646 7.47268 3.646 6.37256C3.646 3.78787 5.74881 1.68506 8.3335 1.68506Z" fill="#006937"></path>
                      <path d="M8.3335 9.18506C9.88431 9.18506 11.146 7.92337 11.146 6.37256C11.146 4.82175 9.88431 3.56006 8.3335 3.56006C6.78268 3.56006 5.521 4.82175 5.521 6.37256C5.521 7.92337 6.78268 9.18506 8.3335 9.18506ZM8.3335 4.49756C9.36737 4.49756 10.2085 5.33868 10.2085 6.37256C10.2085 7.40643 9.36737 8.24756 8.3335 8.24756C7.29962 8.24756 6.4585 7.40643 6.4585 6.37256C6.4585 5.33868 7.29962 4.49756 8.3335 4.49756Z" fill="#006937"></path>
                    </g>
                    <defs>
                      <clipPath id="clip0_8112_13377">
                        <rect width="16" height="16" fill="white" transform="translate(0.333496 0.747559)"></rect>
                      </clipPath>
                    </defs>
                  </svg>