<svg xmlns="http://www.w3.org/2000/svg" width="24" height="24" viewBox="0 0 24 24" fill="none">
              <g clip-path="url(#clip0_22006_1191)">
                <path d="M8.78343 24.0053C7.29093 24.0053 5.83171 23.4845 4.6753 22.5386C3.15655 21.2964 2.28561 19.4627 2.28561 17.5075C2.28561 16.0835 2.73843 14.7306 3.59483 13.5958C4.42171 12.5003 5.59827 11.6795 6.90796 11.2853C8.07843 10.9328 9.31265 11.5183 9.77811 12.6475C9.80811 12.7197 9.83436 12.7947 9.85686 12.8688C10.0392 13.4744 9.97499 14.1147 9.67593 14.6716C9.37686 15.2285 8.87858 15.6358 8.27296 15.8181C7.53515 16.0403 7.01999 16.735 7.01999 17.5075C7.01999 18.1249 7.35093 18.7056 7.8839 19.0234C8.17827 19.1992 8.51577 19.2841 8.8603 19.2695C9.80624 19.2292 10.5473 18.4394 10.5473 17.471V2.39501C10.5473 1.31501 11.2636 0.36298 12.2887 0.0803239C12.4017 0.0489176 12.518 0.0264176 12.6333 0.0128239C12.8475 -0.0129574 13.0645 -0.00873864 13.2787 0.0240739C14.0953 0.14548 14.7989 0.695324 15.1158 1.45939C15.2353 1.74767 15.2958 2.05235 15.2958 2.36501C15.2958 3.61798 15.8653 4.78001 16.8586 5.55298C17.5692 6.1061 18.4205 6.40048 19.32 6.40376C20.2861 6.40704 21.15 6.98314 21.5212 7.87142C21.6834 8.26048 21.7378 8.68798 21.6778 9.10798C21.5114 10.2672 20.4914 11.1381 19.3026 11.1381C19.2984 11.1381 19.2947 11.1381 19.2905 11.1381C17.8781 11.1311 16.5136 10.7908 15.2817 10.1453V17.5188C15.2817 17.5263 15.2817 17.5338 15.2812 17.5417C15.2705 19.4688 14.4117 21.2791 12.9244 22.5114C11.7619 23.4747 10.2914 24.0053 8.78343 24.0053ZM7.59327 12.5899C7.50046 12.5899 7.40624 12.6034 7.31296 12.6316C6.28686 12.9405 5.36483 13.5841 4.71702 14.4428C4.04624 15.3316 3.69186 16.3914 3.69186 17.5075C3.69186 19.0389 4.37483 20.4761 5.56593 21.4502C6.47202 22.1913 7.61483 22.5991 8.78343 22.5991C9.96421 22.5991 11.1164 22.1833 12.0267 21.4286C13.1953 20.4602 13.8689 19.0385 13.875 17.5277C13.875 17.5225 13.875 17.5164 13.8755 17.5094V7.49454L14.9939 8.31298C16.2516 9.23361 17.7398 9.72392 19.2975 9.73189H19.3026C19.7962 9.73189 20.2181 9.37892 20.2856 8.90876C20.31 8.7372 20.2894 8.57079 20.2237 8.41376C20.0733 8.05423 19.7086 7.81142 19.3153 7.81001C18.1017 7.80579 16.9533 7.40876 15.9951 6.66251C14.6573 5.62095 13.89 4.05439 13.89 2.36501C13.89 2.23798 13.8656 2.11423 13.8173 1.99798C13.6884 1.6872 13.4025 1.46361 13.0716 1.41486L13.0655 1.41392C12.9773 1.40032 12.8883 1.39845 12.8001 1.40923C12.7547 1.41486 12.7087 1.42376 12.6633 1.43642C12.2447 1.55126 11.9531 1.94548 11.9531 2.39501V17.471C11.9531 18.2945 11.6428 19.0788 11.0798 19.6792C10.5108 20.2863 9.74343 20.6397 8.91936 20.6744C8.30015 20.7002 7.69311 20.5474 7.16296 20.2309C6.20718 19.6609 5.61327 18.617 5.61327 17.5075C5.61327 16.12 6.53999 14.8717 7.86702 14.4719C8.11265 14.3978 8.31515 14.2324 8.43655 14.0064C8.55796 13.7805 8.58421 13.5203 8.51015 13.2747C8.50124 13.2447 8.48999 13.2138 8.4778 13.1838C8.32593 12.8153 7.97296 12.5899 7.59327 12.5899ZM15.2808 17.5305V17.5366C15.2808 17.5347 15.2808 17.5324 15.2808 17.5305Z" fill="#FAF7F2"></path>
              </g>
              <defs>
                <clipPath id="clip0_22006_1191">
                  <rect width="24" height="24" fill="white"></rect>
                </clipPath>
              </defs>
            </svg>