<svg xmlns="http://www.w3.org/2000/svg" width="16" height="17" viewBox="0 0 16 17" fill="none">
  <g clip-path="url(#clip0_8112_13267)">
    <path d="M6.75367 10.3875C6.97942 10.534 7.14901 10.5962 7.35108 10.6204V10.7475C7.35108 10.914 7.47667 11.0593 7.64279 11.0701C7.82479 11.0818 7.97608 10.9377 7.97608 10.7582V10.5889C8.40673 10.462 8.68239 10.0865 8.7447 9.71587C8.8277 9.22203 8.55992 8.77587 8.07829 8.60562C7.8162 8.51299 7.52658 8.40124 7.36533 8.27478C7.31995 8.23918 7.30079 8.15509 7.31767 8.06553C7.32623 8.02006 7.3662 7.86803 7.52045 7.82156C7.82323 7.73034 8.01554 7.88456 8.03648 7.90243L8.1052 7.95212C8.23011 8.04243 8.4027 8.02562 8.50786 7.91296C8.61686 7.79618 8.61758 7.61518 8.50954 7.49753L8.45611 7.43934C8.36436 7.35471 8.19576 7.25078 7.97608 7.19978V7.05465C7.97608 6.88821 7.85048 6.74287 7.68436 6.73212C7.50236 6.72034 7.35108 6.86449 7.35108 7.04393V7.22006C7.34742 7.22112 7.34383 7.22203 7.34017 7.22312C7.01336 7.32156 6.76936 7.60003 6.70345 7.94981C6.64267 8.27237 6.74848 8.58534 6.97958 8.76659C7.16686 8.91349 7.42483 9.03759 7.86998 9.19493C8.14983 9.29384 8.14389 9.51974 8.12833 9.61224C8.09642 9.80209 7.93673 10.0072 7.66148 10.0091C7.38051 10.011 7.30014 9.99818 7.08708 9.85884C6.93761 9.76096 6.73533 9.80784 6.64492 9.96487C6.56145 10.1098 6.61339 10.2965 6.75367 10.3875Z" fill="#006937"></path>
    <path d="M5.73468 12.1322C5.7844 12.1064 5.83728 12.0874 5.89221 12.0764L8.86043 12.0763C9.21247 12.0763 9.56381 12.1704 9.86859 12.3467L10.8462 12.9111L10.8538 12.9154C11.2906 13.1654 11.7922 13.2976 12.3045 13.2976H13.7287C13.9012 13.2976 14.0412 13.1577 14.0412 12.9851C14.0412 12.8125 13.9012 12.6726 13.7287 12.6726H12.3045C11.9032 12.6726 11.511 12.57 11.1693 12.3757C12.0664 11.4562 12.5737 10.2214 12.5737 8.9256C12.5737 7.84591 12.2317 6.82029 11.5846 5.95957C10.959 5.12738 10.0689 4.50241 9.07812 4.19976C8.91312 4.14932 8.7384 4.24226 8.68796 4.40732C8.63753 4.57238 8.73047 4.74707 8.89553 4.79748C9.76078 5.06179 10.5383 5.60788 11.0851 6.33513C11.6501 7.08673 11.9487 7.98251 11.9487 8.92563C11.9487 10.1112 11.4629 11.2384 10.6085 12.0519C10.3752 11.9172 10.1443 11.7692 9.89603 11.6633C10.7037 10.996 11.1843 9.99835 11.1843 8.92563C11.1843 6.96729 9.59109 5.37407 7.63275 5.37407C5.67425 5.37407 4.08087 6.96729 4.08087 8.92563C4.08087 9.98204 4.5505 10.9706 5.33987 11.6383C5.12103 11.7804 4.95271 11.9892 4.8609 12.2348C3.88568 11.4189 3.3165 10.2156 3.3165 8.92563C3.3165 7.98323 3.61478 7.08795 4.17909 6.33666C4.72509 5.60973 5.50181 5.06354 6.36618 4.79863C6.53118 4.74804 6.62396 4.57329 6.5734 4.40826C6.52284 4.24329 6.348 4.15051 6.18306 4.20104C5.19331 4.50438 4.30415 5.12951 3.67937 5.96129C3.03309 6.8217 2.6915 7.84673 2.6915 8.9256C2.6915 10.2859 3.24431 11.562 4.204 12.4847L2.4119 12.0423C1.74334 11.8781 1.04878 12.2931 0.878371 12.9603C0.707934 13.6274 1.10965 14.3178 1.77393 14.4993L4.8325 15.3339C5.18409 15.4297 5.54637 15.4936 5.90822 15.5238L13.7017 16.2001C13.7109 16.2009 13.72 16.2013 13.7291 16.2013C13.8894 16.2013 14.0259 16.0785 14.04 15.9158C14.055 15.7438 13.9277 15.5923 13.7557 15.5774L5.96122 14.901C5.63618 14.8739 5.31165 14.8167 4.99687 14.7309L1.93856 13.8963C1.60134 13.8042 1.3974 13.4537 1.48393 13.1149C1.57053 12.7759 1.92293 12.5658 2.26253 12.6492L4.96934 13.3174C5.18662 13.6648 5.5724 13.8964 6.01147 13.8964H8.19987C8.37243 13.8964 8.51237 13.7565 8.51237 13.5839C8.51237 13.4114 8.37243 13.2714 8.19987 13.2714H6.0115C5.76537 13.2714 5.55353 13.1231 5.45971 12.9114C5.33187 12.6242 5.45559 12.2767 5.73468 12.1322ZM4.70587 8.9256C4.70587 7.31188 6.01887 5.99904 7.63275 5.99904C9.24646 5.99904 10.5593 7.31191 10.5593 8.9256C10.5593 9.9757 10.0005 10.9389 9.09465 11.4617C9.0169 11.4547 8.93847 11.4511 8.86043 11.4512H6.15287C5.25831 10.9263 4.70587 9.96582 4.70587 8.9256Z" fill="#006937"></path>
    <path d="M0.773686 11.7962C0.809967 11.7962 0.846873 11.7899 0.882873 11.7764C1.04459 11.7161 1.12678 11.5361 1.06644 11.3744C0.774373 10.5916 0.626311 9.76777 0.626311 8.92571C0.626311 7.05412 1.35515 5.29459 2.67853 3.97119C4.00193 2.64776 5.76149 1.91894 7.63305 1.91894C9.50461 1.91894 11.2642 2.64776 12.5876 3.97119C13.911 5.29459 14.6398 7.05412 14.6398 8.92571C14.6398 9.52605 14.5641 10.1171 14.4151 10.6906L14.1099 10.1326C14.0271 9.98112 13.8373 9.92549 13.6858 10.0082C13.5344 10.091 13.4788 10.2809 13.5615 10.4323L14.2183 11.6335C14.3027 11.7877 14.5044 11.8419 14.6551 11.7505L15.8514 11.0216C15.9987 10.9318 16.0454 10.7396 15.9557 10.5922C15.8659 10.4448 15.6736 10.3981 15.5262 10.4879L15.0361 10.7865C15.1881 10.181 15.2648 9.55799 15.2648 8.92571C15.2648 6.88722 14.471 4.97069 13.0296 3.52922C11.5881 2.08779 9.67161 1.29395 7.63308 1.29395C5.59455 1.29395 3.67805 2.08779 2.23659 3.52922C0.795154 4.97072 0.00131226 6.88722 0.00131226 8.92571C0.00131226 9.84258 0.162656 10.74 0.480843 11.5929C0.527749 11.7185 0.646967 11.7962 0.773686 11.7962Z" fill="#006937"></path>
    <path d="M7.37288 4.47071C7.46753 4.61255 7.66425 4.65096 7.806 4.55696C7.94775 4.46296 7.98675 4.2649 7.89257 4.12355C7.79816 3.98187 7.60047 3.94315 7.45913 4.03727C7.31647 4.13227 7.27975 4.32843 7.37288 4.47071Z" fill="#006937"></path>
  </g>
  <defs>
    <clipPath id="clip0_8112_13267">
      <rect width="16" height="16" fill="white" transform="translate(0.00131226 0.747559)"></rect>
    </clipPath>
  </defs>
</svg>