<svg xmlns="http://www.w3.org/2000/svg" width="24" height="24" viewBox="0 0 24 24" fill="none">
                <g clip-path="url(#clip0_12262_2519)">
                  <path d="M21.1875 3.75H5.2073L4.94986 2.31563C4.70897 0.973875 3.54478 0 2.18156 0H0.9375C0.419719 0 0 0.419719 0 0.9375C0 1.45528 0.419719 1.875 0.9375 1.875H2.18156C2.63597 1.875 3.02405 2.19961 3.10434 2.64689C3.19008 3.1245 5.19516 14.2956 5.29317 14.8417C4.27781 15.2664 3.5625 16.2699 3.5625 17.4375C3.5625 18.7327 4.44281 19.8256 5.6363 20.1509C5.50852 20.4719 5.4375 20.8215 5.4375 21.1875C5.4375 22.7383 6.69919 24 8.25 24C9.80081 24 11.0625 22.7383 11.0625 21.1875C11.0625 20.8589 11.0053 20.5434 10.9012 20.25H16.8488C16.7447 20.5434 16.6875 20.8589 16.6875 21.1875C16.6875 22.7383 17.9492 24 19.5 24C21.0508 24 22.3125 22.7383 22.3125 21.1875C22.3125 20.7538 22.2137 20.3429 22.0376 19.9756C22.2075 19.806 22.3125 19.5715 22.3125 19.3125C22.3125 18.7947 21.8928 18.375 21.375 18.375H6.375C5.85806 18.375 5.4375 17.9544 5.4375 17.4375C5.4375 16.9213 5.85689 16.5013 6.3728 16.5001C6.37317 16.5001 6.37355 16.5001 6.37392 16.5001C6.37514 16.5001 6.37636 16.5 6.37753 16.5H19.3125C20.6036 16.5 21.724 15.6275 22.0395 14.3774L23.9133 7.25733C23.9143 7.25362 23.9152 7.24992 23.9161 7.24622C23.9718 7.02361 24 6.79359 24 6.5625C24 5.01169 22.7383 3.75 21.1875 3.75ZM9.1875 21.1875C9.1875 21.7044 8.76694 22.125 8.25 22.125C7.73306 22.125 7.3125 21.7044 7.3125 21.1875C7.3125 20.6706 7.73306 20.25 8.25 20.25C8.76694 20.25 9.1875 20.6706 9.1875 21.1875ZM19.5 22.125C18.9831 22.125 18.5625 21.7044 18.5625 21.1875C18.5625 20.6706 18.9831 20.25 19.5 20.25C20.0169 20.25 20.4375 20.6706 20.4375 21.1875C20.4375 21.7044 20.0169 22.125 19.5 22.125ZM22.0983 6.78656L20.225 13.9051C20.224 13.9089 20.223 13.9126 20.2221 13.9164C20.1178 14.3336 19.7437 14.625 19.3125 14.625H7.15922L5.54386 5.625H21.1875C21.7044 5.625 22.125 6.04556 22.125 6.5625C22.125 6.63872 22.116 6.71405 22.0983 6.78656Z" fill="#EAEAEC"></path>
                  <path d="M15.75 9.1875H12C11.4822 9.1875 11.0625 9.60722 11.0625 10.125C11.0625 10.6428 11.4822 11.0625 12 11.0625H15.75C16.2678 11.0625 16.6875 10.6428 16.6875 10.125C16.6875 9.60722 16.2678 9.1875 15.75 9.1875Z" fill="#EAEAEC"></path>
                </g>
                <defs>
                  <clipPath id="clip0_12262_2519">
                    <rect width="24" height="24" fill="white"></rect>
                  </clipPath>
                </defs>
              </svg>