<svg xmlns="http://www.w3.org/2000/svg" width="17" height="17" viewBox="0 0 17 17" fill="none">
  <path d="M16.7977 1.65162C16.7177 1.48184 16.5468 1.37354 16.3591 1.37354H1.32895C1.14125 1.37354 0.970426 1.48184 0.890317 1.65162C0.810271 1.82141 0.835358 2.02211 0.954779 2.16694L6.73259 9.17471V15.6365C6.73259 15.8043 6.81929 15.9601 6.96179 16.0486C7.0399 16.097 7.12854 16.1215 7.21751 16.1215C7.29103 16.1215 7.3648 16.1047 7.43282 16.071L10.6791 14.462C10.8441 14.3803 10.9484 14.2123 10.9487 14.0282L10.955 9.17491L16.7331 2.16688C16.8526 2.02211 16.8778 1.82135 16.7977 1.65162ZM10.0962 8.69205C10.0248 8.77869 9.9856 8.88751 9.98547 8.99988L9.97927 13.7265L7.7025 14.855V9.00053C7.7025 8.88796 7.66339 8.77889 7.59175 8.69205L2.35725 2.34332H15.3307L10.0962 8.69205Z" fill="#006937"></path>
</svg>