<svg xmlns="http://www.w3.org/2000/svg" width="16" height="17" viewBox="0 0 16 17" fill="none">
  <g clip-path="url(#clip0_8112_13290)">
    <path d="M14.934 8.95485C14.8697 8.82313 14.8697 8.67207 14.934 8.54038L15.5308 7.31961C15.863 6.63989 15.5998 5.82974 14.9315 5.47515L13.7312 4.83828C13.6017 4.76959 13.5129 4.64734 13.4875 4.503L13.2528 3.1646C13.1221 2.41942 12.4328 1.91867 11.6838 2.02464L10.3384 2.21495C10.1932 2.23545 10.0496 2.18877 9.94425 2.08686L8.96767 1.14211C8.42389 0.616055 7.57202 0.616024 7.02827 1.14211L6.05165 2.08695C5.94628 2.18889 5.80269 2.23548 5.6575 2.21505L4.3121 2.02473C3.56289 1.9187 2.87383 2.41951 2.74311 3.1647L2.50836 4.50303C2.48302 4.64741 2.39424 4.76963 2.26477 4.83834L1.06446 5.47521C0.396155 5.82977 0.132907 6.63999 0.465155 7.3197L1.06187 8.54045C1.12624 8.67216 1.12624 8.82323 1.06187 8.95491L0.465123 10.1757C0.132875 10.8554 0.396124 11.6655 1.06443 12.0201L2.26474 12.657C2.39424 12.7257 2.48302 12.8479 2.50836 12.9923L2.74311 14.3307C2.86211 15.009 3.44379 15.4848 4.11232 15.4847C4.17816 15.4847 4.24498 15.4801 4.31213 15.4706L5.65753 15.2803C5.80262 15.2597 5.94631 15.3065 6.05168 15.4084L7.02827 16.3531C7.30021 16.6162 7.64902 16.7477 7.99795 16.7477C8.3468 16.7476 8.69582 16.6161 8.96764 16.3531L9.94425 15.4084C10.0496 15.3065 10.1933 15.2599 10.3384 15.2803L11.6838 15.4706C12.4331 15.5766 13.1221 15.0758 13.2528 14.3306L13.4876 12.9923C13.5129 12.8479 13.6017 12.7257 13.7312 12.657L14.9315 12.0201C15.5998 11.6656 15.863 10.8553 15.5308 10.1756L14.934 8.95485ZM14.4989 11.2049L13.2986 11.8418C12.916 12.0449 12.6535 12.406 12.5786 12.8328L12.3439 14.1712C12.2997 14.4233 12.0666 14.5926 11.8131 14.5568L10.4677 14.3665C10.0386 14.3058 9.61404 14.4438 9.30263 14.7451L8.32601 15.6898C8.14208 15.8677 7.85386 15.8677 7.66986 15.6898L6.69327 14.745C6.43009 14.4904 6.08603 14.3525 5.72684 14.3525C5.66103 14.3525 5.59469 14.3571 5.52825 14.3665L4.18285 14.5568C3.92954 14.5926 3.69626 14.4233 3.65201 14.1711L3.41723 12.8327C3.34236 12.406 3.07992 12.0448 2.6972 11.8417L1.4969 11.2049C1.27077 11.0849 1.18171 10.8108 1.29412 10.5808L1.89086 9.36007C2.08111 8.97082 2.08111 8.52438 1.89086 8.13514L1.29412 6.91436C1.18171 6.6844 1.27077 6.4103 1.4969 6.29033L2.6972 5.65346C3.07989 5.45037 3.34236 5.08919 3.4172 4.66244L3.65195 3.32407C3.6962 3.07195 3.92926 2.90257 4.18279 2.93839L5.52819 3.1287C5.95709 3.18942 6.38181 3.05139 6.69321 2.75017L7.66983 1.80542C7.85377 1.62749 8.14198 1.62749 8.32598 1.80542L9.30257 2.75017C9.61398 3.05142 10.0386 3.18942 10.4676 3.1287L11.813 2.93839C12.0663 2.90254 12.2996 3.07195 12.3438 3.32407L12.5786 4.66247C12.6535 5.08922 12.9159 5.45043 13.2986 5.65346L14.4989 6.29033C14.725 6.4103 14.8141 6.6844 14.7017 6.91436L14.1049 8.13511C13.9147 8.52432 13.9147 8.97082 14.1049 9.36003L14.7017 10.5808C14.8141 10.8108 14.7251 11.0849 14.4989 11.2049Z" fill="#006937"></path>
    <path d="M11.3714 5.37635C11.1913 5.19616 10.8991 5.19616 10.7189 5.37635L4.62867 11.4666C4.44848 11.6468 4.44848 11.939 4.62867 12.1192C4.71876 12.2092 4.83686 12.2543 4.95492 12.2543C5.07298 12.2543 5.1911 12.2093 5.28117 12.1192L11.3714 6.02891C11.5517 5.84869 11.5517 5.55657 11.3714 5.37635Z" fill="#006937"></path>
    <path d="M6.15411 4.59473C5.22124 4.59473 4.46228 5.35369 4.46228 6.28656C4.46228 7.21943 5.22124 7.97839 6.15411 7.97839C7.08698 7.97839 7.84595 7.21943 7.84595 6.28656C7.84595 5.35369 7.08698 4.59473 6.15411 4.59473ZM6.15411 7.05556C5.73009 7.05556 5.38512 6.71059 5.38512 6.28653C5.38512 5.8625 5.73009 5.51753 6.15411 5.51753C6.57814 5.51753 6.92314 5.8625 6.92314 6.28653C6.92311 6.71059 6.57814 7.05556 6.15411 7.05556Z" fill="#006937"></path>
    <path d="M9.84943 9.5166C8.91656 9.5166 8.15759 10.2756 8.15759 11.2084C8.15759 12.1413 8.91656 12.9003 9.84943 12.9003C10.7823 12.9003 11.5413 12.1413 11.5413 11.2084C11.5413 10.2756 10.7823 9.5166 9.84943 9.5166ZM9.84943 11.9774C9.4254 11.9774 9.0804 11.6325 9.0804 11.2084C9.0804 10.7844 9.42537 10.4394 9.84943 10.4394C10.2735 10.4394 10.6184 10.7844 10.6184 11.2084C10.6184 11.6325 10.2735 11.9774 9.84943 11.9774Z" fill="#006937"></path>
  </g>
  <defs>
    <clipPath id="clip0_8112_13290">
      <rect width="16" height="16" fill="white" transform="translate(0.00134277 0.747559)"></rect>
    </clipPath>
  </defs>
</svg>