<svg xmlns="http://www.w3.org/2000/svg" width="28" height="28" viewBox="0 0 28 28" fill="none">
  <path d="M14 0C9.92912 0 6.61719 3.31193 6.61719 7.38281C6.61719 11.4537 9.92912 14.7656 14 14.7656C18.0709 14.7656 21.3828 11.4537 21.3828 7.38281C21.3828 3.31193 18.0709 0 14 0ZM14 13.125C10.8338 13.125 8.25781 10.5491 8.25781 7.38281C8.25781 4.21657 10.8338 1.64063 14 1.64063C17.1662 1.64063 19.7422 4.21657 19.7422 7.38281C19.7422 10.5491 17.1662 13.125 14 13.125Z" fill="#141516"></path>
  <path d="M23.1856 19.5888C21.1644 17.5365 18.4849 16.4063 15.6406 16.4063H12.3594C9.51519 16.4063 6.83561 17.5365 4.81436 19.5888C2.80301 21.631 1.69531 24.3268 1.69531 27.1797C1.69531 27.6327 2.06259 28 2.51563 28H25.4844C25.9374 28 26.3047 27.6327 26.3047 27.1797C26.3047 24.3268 25.197 21.631 23.1856 19.5888ZM3.37203 26.3594C3.78301 21.7062 7.65685 18.0469 12.3594 18.0469H15.6406C20.3432 18.0469 24.217 21.7062 24.628 26.3594H3.37203Z" fill="#141516"></path>
</svg>