<svg xmlns="http://www.w3.org/2000/svg" width="28" height="28" viewBox="0 0 28 28" fill="none">
  <path d="M9.0213 18.1018H9.02258L9.02578 18.1016H23.8984C24.2646 18.1016 24.5865 17.8587 24.6871 17.5066L27.9684 6.02225C28.0391 5.77466 27.9895 5.50849 27.8346 5.30298C27.6796 5.09748 27.4371 4.97657 27.1797 4.97657H7.12945L6.54306 2.33768C6.45953 1.96235 6.12671 1.69532 5.74218 1.69532H0.820312C0.367218 1.69532 0 2.06254 0 2.51563C0 2.96873 0.367218 3.33594 0.820312 3.33594H5.08423C5.18805 3.80356 7.89038 15.9643 8.04589 16.6639C7.1741 17.0428 6.5625 17.9121 6.5625 18.9219C6.5625 20.2788 7.6665 21.3828 9.02343 21.3828H23.8984C24.3515 21.3828 24.7187 21.0156 24.7187 20.5625C24.7187 20.1094 24.3515 19.7422 23.8984 19.7422H9.02343C8.57119 19.7422 8.20312 19.3741 8.20312 18.9219C8.20312 18.4703 8.56991 18.1028 9.0213 18.1018ZM26.0921 6.61719L23.2796 16.4609H9.68139L7.49389 6.61719H26.0921Z" fill="#141516"></path>
  <path d="M8.20312 23.8437C8.20312 25.2007 9.30712 26.3047 10.6641 26.3047C12.021 26.3047 13.125 25.2007 13.125 23.8437C13.125 22.4868 12.021 21.3828 10.6641 21.3828C9.30712 21.3828 8.20312 22.4868 8.20312 23.8437ZM10.6641 23.0234C11.1163 23.0234 11.4844 23.3915 11.4844 23.8437C11.4844 24.296 11.1163 24.6641 10.6641 24.6641C10.2118 24.6641 9.84374 24.296 9.84374 23.8437C9.84374 23.3915 10.2118 23.0234 10.6641 23.0234Z" fill="#141516"></path>
  <path d="M19.7969 23.8437C19.7969 25.2007 20.9009 26.3047 22.2578 26.3047C23.6147 26.3047 24.7187 25.2007 24.7187 23.8437C24.7187 22.4868 23.6147 21.3828 22.2578 21.3828C20.9009 21.3828 19.7969 22.4868 19.7969 23.8437ZM22.2578 23.0234C22.71 23.0234 23.0781 23.3915 23.0781 23.8437C23.0781 24.296 22.71 24.6641 22.2578 24.6641C21.8056 24.6641 21.4375 24.296 21.4375 23.8437C21.4375 23.3915 21.8056 23.0234 22.2578 23.0234Z" fill="#141516"></path>
</svg>