<svg xmlns="http://www.w3.org/2000/svg" width="24" height="24" viewBox="0 0 24 24" fill="none">
                <g clip-path="url(#clip0_12262_2523)">
                  <path d="M17.6484 14.2744H13.8828C13.4944 14.2744 13.1797 14.5894 13.1797 14.9775V18.7751C13.1797 19.1633 13.4944 19.4783 13.8828 19.4783H17.6484C18.0367 19.4783 18.3515 19.1633 18.3515 18.7751V14.9775C18.3515 14.5894 18.0367 14.2744 17.6484 14.2744ZM16.9453 18.072H14.5859V15.6807H16.9453V18.072Z" fill="#EAEAEC"></path>
                  <path d="M23.9729 6.53192L22.9839 3.0705C22.6121 1.76917 21.2609 0.75 19.9078 0.75H4.09222C2.73907 0.75 1.38794 1.76917 1.01605 3.0705L0.0270996 6.53192C0.00915525 6.59473 0 6.65973 0 6.7251V8.98425C0 10.2371 0.78186 11.3097 1.88287 11.7424V20.6578C1.88287 22.0836 3.04285 23.2438 4.46887 23.2438H19.5313C20.9572 23.2438 22.1173 22.0836 22.1173 20.6578V11.7424C23.2181 11.3097 24 10.2371 24 8.98425V6.7251C24 6.65973 23.9908 6.59473 23.9729 6.53192ZM2.36829 3.45685C2.56622 2.76398 3.3717 2.15625 4.09222 2.15625H19.9078C20.6281 2.15625 21.4338 2.76398 21.6317 3.45685L22.3647 6.02197H1.63531L2.36829 3.45685ZM5.92493 7.42822H9.03754V8.98425C9.03754 9.84247 8.33936 10.5406 7.48114 10.5406C6.62311 10.5406 5.92493 9.84247 5.92493 8.98425V7.42822ZM10.4438 7.42822H13.5562V8.98425C13.5562 9.84247 12.858 10.5406 12 10.5406C11.142 10.5406 10.4438 9.84247 10.4438 8.98425V7.42822ZM14.9625 7.42822H18.0749V8.98425C18.0749 9.84247 17.3769 10.5406 16.5187 10.5406C15.6606 10.5406 14.9625 9.84247 14.9625 8.98425V7.42822ZM1.40625 8.98425V7.42822H4.51868V8.98425C4.51868 9.84247 3.82068 10.5406 2.96246 10.5406C2.10443 10.5406 1.40625 9.84247 1.40625 8.98425ZM7.05469 21.8375V17.5953H9.41418V21.8375H7.05469ZM19.5313 21.8375H10.8204V16.8922C10.8204 16.504 10.5055 16.1891 10.1173 16.1891H6.35156C5.96338 16.1891 5.64844 16.504 5.64844 16.8922V21.8375H4.46887C3.8183 21.8375 3.28912 21.3083 3.28912 20.6578V11.9286C4.0611 11.8434 4.74445 11.4606 5.2218 10.8975C5.76581 11.5388 6.57642 11.9469 7.48114 11.9469C8.38586 11.9469 9.19684 11.5388 9.74066 10.8975C10.2845 11.5388 11.0953 11.9469 12 11.9469C12.9047 11.9469 13.7155 11.5388 14.2593 10.8975C14.8032 11.5388 15.614 11.9469 16.5187 11.9469C17.4234 11.9469 18.2342 11.5388 18.778 10.8975C19.2556 11.4606 19.9389 11.8434 20.7109 11.9286V20.6578C20.7111 21.3083 20.1817 21.8375 19.5313 21.8375ZM21.0375 10.5406C20.1793 10.5406 19.4813 9.84247 19.4813 8.98444V7.42822H22.5938V8.98444C22.5938 9.84247 21.8956 10.5406 21.0375 10.5406Z" fill="#EAEAEC"></path>
                </g>
                <defs>
                  <clipPath id="clip0_12262_2523">
                    <rect width="24" height="24" fill="white"></rect>
                  </clipPath>
                </defs>
              </svg>