<svg xmlns="http://www.w3.org/2000/svg" width="24" height="24" viewBox="0 0 24 24" fill="none">
              <g clip-path="url(#clip0_22006_1189)">
                <path d="M12.2362 23.9999C12.1567 23.9999 12.0773 23.9999 11.9973 23.9996C10.116 24.0041 8.37781 23.9564 6.68738 23.8534C5.13757 23.7591 3.7229 23.2236 2.59607 22.3047C1.50879 21.4181 0.766296 20.2194 0.389282 18.7421C0.0611572 17.4559 0.0437622 16.1934 0.0270996 14.9723C0.0150146 14.0961 0.00256348 13.0579 0 12.0021C0.00256348 10.9419 0.0150146 9.90374 0.0270996 9.02758C0.0437622 7.80663 0.0611572 6.54412 0.389282 5.25781C0.766296 3.78051 1.50879 2.58172 2.59607 1.69512C3.7229 0.7763 5.13757 0.240716 6.68756 0.146417C8.37799 0.0436949 10.1166 -0.00427876 12.0018 0.000298881C13.8836 -0.00372944 15.6213 0.0436949 17.3117 0.146417C18.8615 0.240716 20.2762 0.7763 21.403 1.69512C22.4905 2.58172 23.2328 3.78051 23.6098 5.25781C23.9379 6.54394 23.9553 7.80663 23.972 9.02758C23.9841 9.90374 23.9967 10.9419 23.9991 11.9977V12.0021C23.9967 13.0579 23.9841 14.0961 23.972 14.9723C23.9553 16.1932 23.9381 17.4557 23.6098 18.7421C23.2328 20.2194 22.4905 21.4181 21.403 22.3047C20.2762 23.2236 18.8615 23.7591 17.3117 23.8534C15.6929 23.952 14.0299 23.9999 12.2362 23.9999ZM11.9973 22.5131C13.8479 22.5175 15.5471 22.4706 17.1978 22.3703C18.3697 22.299 19.752 21.5304 20.5844 20.8516C21.3538 20.2241 21.8837 19.3584 22.1593 18.2784C22.4325 17.2078 22.4482 16.0583 22.4634 14.9466C22.4753 14.0763 22.4878 13.0455 22.4903 11.9999C22.4878 10.9542 22.4753 9.92352 22.4634 9.05322C22.4482 7.94158 22.4325 6.79205 22.1593 5.72125C21.8837 4.64129 21.3538 3.77557 20.5844 3.14806C19.752 2.46948 18.3697 1.72331 17.1978 1.65209C15.5471 1.55156 13.8479 1.50524 12.0016 1.50926C10.1514 1.50487 8.45196 1.55706 6.80127 1.65759C5.62939 1.72882 4.37526 2.2314 3.54286 2.90998C2.77346 3.53749 2.10105 4.64129 1.82548 5.72125C1.55229 6.79205 1.53654 7.9414 1.52134 9.05322C1.50944 9.92425 1.49699 10.9557 1.49443 12.0021C1.49699 13.044 1.50944 14.0756 1.52134 14.9466C1.53654 16.0583 1.55229 17.2078 1.82548 18.2784C2.10105 19.3584 2.63096 20.2241 3.40037 20.8516C4.23277 21.5302 5.62939 22.299 6.80127 22.3703C8.45196 22.4708 10.1517 22.5177 11.9973 22.5131ZM11.9526 17.8593C8.72186 17.8593 6.0932 15.2308 6.0932 11.9999C6.0932 8.76904 8.72186 6.14056 11.9526 6.14056C15.1835 6.14056 17.8119 8.76904 17.8119 11.9999C17.8119 15.2308 15.1835 17.8593 11.9526 17.8593ZM12.0016 7.50489C9.36718 7.50489 7.51314 9.35893 7.51314 11.9977C7.51314 14.1946 9.17436 16.513 11.9757 16.513C14.1728 16.513 16.457 14.4316 16.457 11.9977C16.457 9.80083 14.781 7.50489 12.0016 7.50489ZM18.4682 4.26556C17.6916 4.26556 17.0619 4.89507 17.0619 5.67181C17.0619 6.44854 17.6916 7.07806 18.4682 7.07806C19.2449 7.07806 19.8744 6.44854 19.8744 5.67181C19.8744 4.89507 19.2449 4.26556 18.4682 4.26556Z" fill="#FAF7F2"></path>
              </g>
              <defs>
                <clipPath id="clip0_22006_1189">
                  <rect width="24" height="24" fill="white"></rect>
                </clipPath>
              </defs>
            </svg>