<svg xmlns="http://www.w3.org/2000/svg" width="20" height="21" viewBox="0 0 20 21" fill="none">
              <g clip-path="url(#clip0_8668_5617)">
                <path d="M5.84656 10.4741H4.59656C4.27296 10.4741 4.01062 10.7365 4.01062 11.0601C4.01062 11.3837 4.27296 11.646 4.59656 11.646H5.84656C6.17015 11.646 6.4325 11.3837 6.4325 11.0601C6.4325 10.7365 6.17015 10.4741 5.84656 10.4741Z" fill="#006937"></path>
                <path d="M5.84656 12.9741H4.59656C4.27296 12.9741 4.01062 13.2365 4.01062 13.5601C4.01062 13.8837 4.27296 14.146 4.59656 14.146H5.84656C6.17015 14.146 6.4325 13.8837 6.4325 13.5601C6.4325 13.2365 6.17015 12.9741 5.84656 12.9741Z" fill="#006937"></path>
                <path d="M5.84656 15.4741H4.59656C4.27296 15.4741 4.01062 15.7365 4.01062 16.0601C4.01062 16.3837 4.27296 16.646 4.59656 16.646H5.84656C6.17015 16.646 6.4325 16.3837 6.4325 16.0601C6.4325 15.7365 6.17015 15.4741 5.84656 15.4741Z" fill="#006937"></path>
                <path d="M10.8466 10.4741H9.59656C9.27296 10.4741 9.01062 10.7365 9.01062 11.0601C9.01062 11.3837 9.27296 11.646 9.59656 11.646H10.8466C11.1702 11.646 11.4325 11.3837 11.4325 11.0601C11.4325 10.7365 11.1702 10.4741 10.8466 10.4741Z" fill="#006937"></path>
                <path d="M10.8466 12.9741H9.59656C9.27296 12.9741 9.01062 13.2365 9.01062 13.5601C9.01062 13.8837 9.27296 14.146 9.59656 14.146H10.8466C11.1702 14.146 11.4325 13.8837 11.4325 13.5601C11.4325 13.2365 11.1702 12.9741 10.8466 12.9741Z" fill="#006937"></path>
                <path d="M10.8466 15.4741H9.59656C9.27296 15.4741 9.01062 15.7365 9.01062 16.0601C9.01062 16.3837 9.27296 16.646 9.59656 16.646H10.8466C11.1702 16.646 11.4325 16.3837 11.4325 16.0601C11.4325 15.7365 11.1702 15.4741 10.8466 15.4741Z" fill="#006937"></path>
                <path d="M15.8466 10.4741H14.5966C14.273 10.4741 14.0106 10.7365 14.0106 11.0601C14.0106 11.3837 14.273 11.646 14.5966 11.646H15.8466C16.1702 11.646 16.4325 11.3837 16.4325 11.0601C16.4325 10.7365 16.1702 10.4741 15.8466 10.4741Z" fill="#006937"></path>
                <path d="M15.8466 12.9741H14.5966C14.273 12.9741 14.0106 13.2365 14.0106 13.5601C14.0106 13.8837 14.273 14.146 14.5966 14.146H15.8466C16.1702 14.146 16.4325 13.8837 16.4325 13.5601C16.4325 13.2365 16.1702 12.9741 15.8466 12.9741Z" fill="#006937"></path>
                <path d="M15.8466 15.4741H14.5966C14.273 15.4741 14.0106 15.7365 14.0106 16.0601C14.0106 16.3837 14.273 16.646 14.5966 16.646H15.8466C16.1702 16.646 16.4325 16.3837 16.4325 16.0601C16.4325 15.7365 16.1702 15.4741 15.8466 15.4741Z" fill="#006937"></path>
                <path d="M18.4637 3.28662H17.0575V2.31006C17.0575 1.98646 16.7952 1.72412 16.4716 1.72412C16.148 1.72412 15.8856 1.98646 15.8856 2.31006V3.28662H10.8075V2.31006C10.8075 1.98646 10.5452 1.72412 10.2216 1.72412C9.89796 1.72412 9.63562 1.98646 9.63562 2.31006V3.28662H4.5575V2.31006C4.5575 1.98646 4.29515 1.72412 3.97156 1.72412C3.64796 1.72412 3.38562 1.98646 3.38562 2.31006V3.28662H1.97937C1.01011 3.28662 0.221558 4.07518 0.221558 5.04443V18.0132C0.221558 18.9824 1.01011 19.771 1.97937 19.771H18.4637C19.433 19.771 20.2216 18.9824 20.2216 18.0132C20.2216 17.635 20.2216 5.37354 20.2216 5.04443C20.2216 4.07518 19.433 3.28662 18.4637 3.28662ZM1.39343 5.04443C1.39343 4.72135 1.65628 4.4585 1.97937 4.4585H3.38562V5.43506C3.38562 5.75865 3.64796 6.021 3.97156 6.021C4.29515 6.021 4.5575 5.75865 4.5575 5.43506V4.4585H9.63562V5.43506C9.63562 5.75865 9.89796 6.021 10.2216 6.021C10.5452 6.021 10.8075 5.75865 10.8075 5.43506V4.4585H15.8856V5.43506C15.8856 5.75865 16.148 6.021 16.4716 6.021C16.7952 6.021 17.0575 5.75865 17.0575 5.43506V4.4585H18.4637C18.7868 4.4585 19.0497 4.72135 19.0497 5.04443V7.34912H1.39343V5.04443ZM18.4637 18.5991H1.97937C1.65628 18.5991 1.39343 18.3363 1.39343 18.0132V8.521H19.0497V18.0132C19.0497 18.3363 18.7868 18.5991 18.4637 18.5991Z" fill="#006937"></path>
              </g>
              <defs>
                <clipPath id="">
                  <rect width="20" height="20" fill="white" transform="translate(0 0.747559)"></rect>
                </clipPath>
              </defs>
            </svg>