<svg xmlns="http://www.w3.org/2000/svg" width="20" height="20" viewBox="0 0 20 20" fill="none">
                    <path d="M19.2188 3.125H0.78125C0.349766 3.125 0 3.40481 0 3.75C0 4.09519 0.349766 4.375 0.78125 4.375H19.2188C19.6502 4.375 20 4.09519 20 3.75C20 3.40481 19.6502 3.125 19.2188 3.125Z" fill="#006937"></path>
                    <path d="M19.2188 9.375H0.78125C0.349766 9.375 0 9.65481 0 10C0 10.3452 0.349766 10.625 0.78125 10.625H19.2188C19.6502 10.625 20 10.3452 20 10C20 9.65481 19.6502 9.375 19.2188 9.375Z" fill="#006937"></path>
                    <path d="M19.2188 15.625H0.78125C0.349766 15.625 0 15.9048 0 16.25C0 16.5952 0.349766 16.875 0.78125 16.875H19.2188C19.6502 16.875 20 16.5952 20 16.25C20 15.9048 19.6502 15.625 19.2188 15.625Z" fill="#006937"></path>
                  </svg>